<svg width="88" height="89" viewBox="0 0 88 89" fill="none" xmlns="http://www.w3.org/2000/svg">
<g clip-path="url(#clip0_12_97)">
<path d="M44 0C19.8 0 0 20.025 0 44.5C0 68.975 19.8 89 44 89C68.2 89 88 68.975 88 44.5C88 20.025 68.2 0 44 0ZM44 14.8333C52.0667 14.8333 58.6667 22.9917 58.6667 33.375C58.6667 43.7583 52.0667 51.9167 44 51.9167C35.9333 51.9167 29.3333 43.7583 29.3333 33.375C29.3333 22.9917 35.9333 14.8333 44 14.8333ZM68.2 72.3125C61.9667 77.875 53.1667 81.5833 44 81.5833C34.8333 81.5833 26.0333 77.875 19.8 72.3125C18.3333 70.8292 17.9667 68.6042 19.4333 67.1208C23.4667 62.3 28.9667 58.9625 34.8333 57.1083C37.7667 58.5917 40.7 59.3333 44 59.3333C47.3 59.3333 50.2333 58.5917 53.1667 57.1083C59.4 58.9625 64.5333 62.3 68.5667 67.1208C70.0333 68.6042 70.0333 70.8292 68.2 72.3125Z" fill="black"/>
</g>
<defs>
<clipPath id="clip0_12_97">
<rect width="88" height="89" fill="white"/>
</clipPath>
</defs>
</svg>
