<svg width="91" height="99" viewBox="0 0 91 99" fill="none" xmlns="http://www.w3.org/2000/svg">
<path d="M87.618 68.1291L52.9598 96.1426C51.0453 97.8184 48.4377 98.6562 45.566 98.6562C42.6943 98.6562 40.1197 97.8184 38.1723 96.1426L3.38202 68.1291C-0.743958 64.8055 -0.743958 59.3871 3.38202 56.0635C7.508 52.7398 14.1756 52.7398 18.3016 56.0635L34.9375 69.5256V8.91817C34.9375 4.19805 39.6576 0.371681 45.5 0.371681C51.3424 0.371681 56.0625 4.19805 56.0625 8.91817V69.5256L72.6984 56.0635C76.8244 52.7398 83.492 52.7398 87.618 56.0635C91.7439 59.3871 91.7439 64.7775 87.618 68.1291Z" fill="#67FF81"/>
</svg>
