<svg width="90" height="90" viewBox="0 0 90 90" fill="none" xmlns="http://www.w3.org/2000/svg">
<g clip-path="url(#clip0_5_84)">
<path d="M74.25 0H15.75C7.05151 0 0 7.05151 0 15.75V74.25C0 82.9485 7.05151 90 15.75 90H74.25C82.9485 90 90 82.9485 90 74.25V15.75C90 7.05151 82.9485 0 74.25 0Z" fill="white"/>
<path d="M45 84.375C66.7462 84.375 84.375 66.7462 84.375 45C84.375 23.2538 66.7462 5.625 45 5.625C23.2538 5.625 5.625 23.2538 5.625 45C5.625 66.7462 23.2538 84.375 45 84.375Z" fill="#04ACDE"/>
<path d="M37.125 64.9687L46.5469 57.0937L38.4328 53.0016L37.125 64.9687Z" fill="#A8CAE1"/>
<path d="M63.886 28.9125L20.7844 45C20.5618 45.0824 20.371 45.2332 20.2392 45.4306C20.1075 45.6281 20.0416 45.8622 20.0509 46.0994C20.0603 46.3366 20.1444 46.5647 20.2913 46.7512C20.4382 46.9377 20.6404 47.0729 20.8688 47.1375L36.3375 51.5672C36.4747 51.61 36.6032 51.6767 36.7172 51.7641L56.1235 66.6703C56.2743 66.7861 56.4521 66.8618 56.6402 66.8903C56.8283 66.9187 57.0205 66.899 57.1989 66.833C57.3773 66.767 57.5361 66.6568 57.6603 66.5127C57.7846 66.3687 57.8703 66.1955 57.9094 66.0094L65.3625 30.2766C65.4201 30.0762 65.4209 29.8637 65.3648 29.6629C65.3087 29.4621 65.1978 29.2809 65.0447 29.1394C64.8915 28.9979 64.7021 28.9018 64.4975 28.8617C64.2929 28.8216 64.0812 28.8392 63.886 28.9125Z" fill="white"/>
<path d="M32.6813 50.4563L37.125 64.9688L38.4328 53.0016L58.7813 34.7344L32.6813 50.4563Z" fill="#C1D8E9"/>
</g>
<defs>
<clipPath id="clip0_5_84">
<rect width="90" height="90" fill="white"/>
</clipPath>
</defs>
</svg>
