<svg width="90" height="90" viewBox="0 0 90 90" fill="none" xmlns="http://www.w3.org/2000/svg">
<path d="M58.6 0C67.6 0 72.1 0 77 1.5C82.3 3.4 86.5 7.6 88.4 12.9C90 17.8 90 22.4 90 31.4V58.6C90 67.6 90 72.1 88.5 77C86.6 82.3 82.4 86.5 77.1 88.4C72.1 90 67.6 90 58.6 90H31.4C22.4 90 17.9 90 13 88.5C7.6 86.5 3.5 82.4 1.5 77C0 72.2 0 67.7 0 58.6V31.4C0 22.4 0 17.9 1.5 13C3.5 7.7 7.6 3.5 13 1.6C17.8 -1.19209e-07 22.3 0 31.4 0H58.6Z" fill="url(#paint0_linear_3_67)"/>
<path d="M18 34H30V66H18V34Z" fill="white"/>
<path d="M24 17C25.3845 17 26.7378 17.3519 27.889 18.0112C29.0401 18.6705 29.9373 19.6075 30.4672 20.7039C30.997 21.8003 31.1356 23.0067 30.8655 24.1705C30.5954 25.3344 29.9287 26.4035 28.9497 27.2426C27.9708 28.0818 26.7235 28.6532 25.3656 28.8847C24.0078 29.1162 22.6003 28.9974 21.3212 28.5433C20.0421 28.0891 18.9489 27.3201 18.1797 26.3334C17.4105 25.3467 17 24.1867 17 23C17 21.4087 17.7375 19.8826 19.0503 18.7574C20.363 17.6321 22.1435 17 24 17Z" fill="white"/>
<path d="M59.6312 34C57.4602 34.0858 55.3352 34.5405 53.3924 35.3349C51.4497 36.1292 49.7321 37.2458 48.35 38.6129V34H36V66H48.35V47.7742C48.35 47.0625 48.522 46.3578 48.8562 45.7003C49.1904 45.0428 49.6802 44.4454 50.2977 43.9421C50.9152 43.4389 51.6483 43.0397 52.4552 42.7674C53.262 42.495 54.1267 42.3548 55 42.3548C55.8733 42.3548 56.738 42.495 57.5448 42.7674C58.3517 43.0397 59.0847 43.4389 59.7023 43.9421C60.3198 44.4454 60.8096 45.0428 61.1438 45.7003C61.478 46.3578 61.65 47.0625 61.65 47.7742V66H74V48.8387C74 40.7742 72.8917 34 59.6312 34Z" fill="white"/>
<defs>
<linearGradient id="paint0_linear_3_67" x1="44.986" y1="0.028" x2="44.986" y2="89.998" gradientUnits="userSpaceOnUse">
<stop stop-color="#5ECFFF"/>
<stop offset="1" stop-color="#0079BD"/>
</linearGradient>
</defs>
</svg>
