<svg width="90" height="90" viewBox="0 0 90 90" fill="none" xmlns="http://www.w3.org/2000/svg">
<g clip-path="url(#clip0_5_69)">
<path d="M74.25 0H15.75C7.05151 0 0 7.05151 0 15.75V74.25C0 82.9485 7.05151 90 15.75 90H74.25C82.9485 90 90 82.9485 90 74.25V15.75C90 7.05151 82.9485 0 74.25 0Z" fill="url(#paint0_linear_5_69)"/>
<path d="M38.5594 30.0656L41.3719 37.7016C41.44 37.8725 41.4628 38.058 41.4382 38.2403C41.4136 38.4226 41.3423 38.5955 41.2313 38.7422C40.6277 39.6176 39.9298 40.424 39.15 41.1469C38.9233 41.3249 38.7735 41.5832 38.7316 41.8684C38.6898 42.1536 38.759 42.444 38.925 42.6797C40.6547 45 45.1406 50.625 50.9766 52.6359C51.2014 52.7102 51.4441 52.7107 51.6693 52.6374C51.8944 52.564 52.0902 52.4206 52.2281 52.2281L54.5625 49.1203C54.7218 48.9101 54.9499 48.7626 55.207 48.7034C55.464 48.6443 55.7336 48.6774 55.9688 48.7969L63.2813 52.4531C63.5355 52.5729 63.7349 52.7846 63.8393 53.0455C63.9437 53.3065 63.9453 53.5973 63.8438 53.8594C63.0422 56.1375 60.525 61.6922 55.1391 60.7922C48.096 59.7116 41.6901 56.096 37.125 50.625C32.7094 45.1125 23.9906 30.9375 37.3922 29.3344C37.6403 29.3097 37.8895 29.3681 38.1008 29.5005C38.312 29.6329 38.4734 29.8316 38.5594 30.0656Z" fill="white"/>
<path d="M47.25 77.0625C41.3668 77.0707 35.5819 75.5542 30.4594 72.6609L13.5844 76.9922L19.7859 63.0562C16.0372 57.7839 14.0355 51.4691 14.0625 45C14.0625 27.3234 28.9547 12.9375 47.25 12.9375C65.5453 12.9375 80.4375 27.3234 80.4375 45C80.4375 62.6766 65.5453 77.0625 47.25 77.0625ZM31.3453 66.6141L32.3719 67.2469C36.8435 70.0068 41.9952 71.4676 47.25 71.4656C62.4515 71.4656 74.8125 59.6109 74.8125 45.0281C74.8125 30.4453 62.4515 18.5625 47.25 18.5625C32.0484 18.5625 19.6875 30.4172 19.6875 45C19.6937 50.8007 21.6779 56.4259 25.3125 60.9469L26.3672 62.2828L21.2906 70.8891L31.3453 66.6141Z" fill="white"/>
</g>
<defs>
<linearGradient id="paint0_linear_5_69" x1="45" y1="5.625" x2="45" y2="91.1391" gradientUnits="userSpaceOnUse">
<stop stop-color="#1DF47C"/>
<stop offset="0.31" stop-color="#12DF63"/>
<stop offset="0.75" stop-color="#05C443"/>
<stop offset="1" stop-color="#00BA37"/>
</linearGradient>
<clipPath id="clip0_5_69">
<rect width="90" height="90" fill="white"/>
</clipPath>
</defs>
</svg>
